<?xml version="1.0" encoding="UTF-8" standalone="no"?>
<!-- Created with Inkscape (http://www.inkscape.org/) -->

<svg
   width="62.531738mm"
   height="59.010147mm"
   viewBox="0 0 62.531738 59.010147"
   version="1.1"
   id="svg5"
   inkscape:version="1.2.2 (1:1.2.2+202212051552+b0a8486541)"
   sodipodi:docname="guessify.svg"
   xmlns:inkscape="http://www.inkscape.org/namespaces/inkscape"
   xmlns:sodipodi="http://sodipodi.sourceforge.net/DTD/sodipodi-0.dtd"
   xmlns="http://www.w3.org/2000/svg"
   xmlns:svg="http://www.w3.org/2000/svg">
  <sodipodi:namedview
     id="namedview7"
     pagecolor="#ffffff"
     bordercolor="#000000"
     borderopacity="0.25"
     inkscape:showpageshadow="2"
     inkscape:pageopacity="0.0"
     inkscape:pagecheckerboard="0"
     inkscape:deskcolor="#d1d1d1"
     inkscape:document-units="mm"
     showgrid="false"
     inkscape:zoom="0.35045761"
     inkscape:cx="1119.9643"
     inkscape:cy="423.73171"
     inkscape:window-width="1920"
     inkscape:window-height="1016"
     inkscape:window-x="0"
     inkscape:window-y="0"
     inkscape:window-maximized="1"
     inkscape:current-layer="layer1" />
  <defs
     id="defs2" />
  <g
     inkscape:label="Layer 1"
     inkscape:groupmode="layer"
     id="layer1"
     transform="translate(-411.3347,-233.76118)">
    <path
       style="fill:none;stroke:#d9d9d9;stroke-width:2;stroke-opacity:1"
       id="path3025"
       sodipodi:type="arc"
       sodipodi:cx="-452.595"
       sodipodi:cy="-268.29126"
       sodipodi:rx="17.332964"
       sodipodi:ry="17.332964"
       sodipodi:start="1.5707963"
       sodipodi:end="4.712389"
       sodipodi:open="true"
       sodipodi:arc-type="arc"
       d="m -452.595,-250.9583 a 17.332964,17.332964 0 0 1 -15.01079,-8.66648 17.332964,17.332964 0 0 1 0,-17.33296 17.332964,17.332964 0 0 1 15.01079,-8.66648"
       transform="rotate(179.36641)"
       inkscape:export-filename="projects/guessify/front/public/assets/volume.svg"
       inkscape:export-xdpi="14.63486"
       inkscape:export-ydpi="14.63486" />
    <path
       style="fill:none;stroke:#d9d9d9;stroke-width:2;stroke-opacity:1"
       id="path3029"
       sodipodi:type="arc"
       sodipodi:cx="-449.99115"
       sodipodi:cy="-268.26212"
       sodipodi:rx="6.4437466"
       sodipodi:ry="6.4437466"
       sodipodi:start="1.5707963"
       sodipodi:end="4.712389"
       sodipodi:arc-type="arc"
       d="m -449.99115,-261.81837 a 6.4437466,6.4437466 0 0 1 -5.58045,-3.22187 6.4437466,6.4437466 0 0 1 0,-6.44375 6.4437466,6.4437466 0 0 1 5.58045,-3.22187"
       sodipodi:open="true"
       transform="rotate(179.36641)" />
    <path
       id="rect5244"
       style="fill:#d9d9d9;fill-opacity:1;stroke:none;stroke-width:3.81083;stroke-linecap:round;stroke-linejoin:round;stroke-opacity:1"
       d="m 438.92343,288.18354 -24.03621,-16.629 c -4.7195,-3.26513 -4.75382,-13.27727 0,-16.56617 l 24.03608,-16.629 c 6.63285,-4.58885 11.9727,-7.45558 11.9727,-0.11054 v 19.75817 6.83898 24.02766 c 0,6.4896 -5.33978,3.89858 -11.97257,-0.69021 z"
       sodipodi:nodetypes="ssssssssss" />
  </g>
</svg>
